<?xml version="1.0" encoding="utf-8"?>
<!-- Generator: Adobe Illustrator 22.0.0, SVG Export Plug-In . SVG Version: 6.00 Build 0)  -->
<svg version="1.1" id="Layer_1" xmlns="http://www.w3.org/2000/svg" xmlns:xlink="http://www.w3.org/1999/xlink" x="0px" y="0px"
	 viewBox="0 0 478 110.5" style="enable-background:new 0 0 478 110.5;" xml:space="preserve">
<style type="text/css">
	.st0{fill:#FFFFFF;}
</style>
<g>
	<g>
		<path class="st0" d="M390.4,40.5c-1.5,3.6-3,7.5-4.6,11.2c-13.4-11.5-32.8-13.3-49.9-9.2c-10.3,2.4-21.4,10.8-23.4,22
			c-1.9,11.3,0.4,22.9,9.6,30c13.1,10,33,10.1,48.8,6.5l4.2-1.6c0-3.1-0.1-9.5-0.1-20.9c-3.2,0-7.3,0.3-10.6,0.6c0-2.6,0.3-5.3,0-8
			c8.5,1.2,18.1,0.7,25.1,0.9v32c-18.2,4.8-41,7.2-61.2,3.2c-13.3-2.5-28.1-11.7-31.6-25.9c-3.4-13.1,0.5-26.5,11.3-34.7
			c17.3-12.9,41.3-14.1,63.1-11.2C377.8,36.3,384.4,37.8,390.4,40.5"/>
		<path class="st0" d="M476.6,36c-0.7,2.9-0.1,5.3-0.1,8.2c-7.3-1.1-15.4-1.2-23-1.2h-34.3c0,21.3-0.1,14.7-0.1,22
			c18.2,0.1,36.3-0.1,54.6-0.4c-0.5,2.6-0.5,5.1-0.1,7.6c-18.2-0.6-36.2,0-54.4,0c0,26.3-0.1,18.8,0,27.7c11.2,0.3,22.3,0,33.5-0.1
			c8.3-0.1,17,0,25.2-1.3c0,2.9-0.6,6.9,0.2,9.7c-71.5,0-15.1,0-73.6,0c0-25.4-0.1-48.5,0-72.4C434.4,35.8,408.7,36,476.6,36"/>
		<path class="st0" d="M281.7,37.2v72h-5.9C253.3,91.4,229.6,73,207,55.7c0,4.6,0,21.5,0,52.8c-3.1-0.2-7.3-0.5-10.5,0V37
			c-0.1-0.1,8,0,8.3,0c2,0,44.4,33.3,66.5,50.4c0-27.1,0-21.4,0-50.2C274.6,37.6,278.5,37.4,281.7,37.2"/>
		<path class="st0" d="M179.9,36.9v44.1c0,10.1-7,19.7-16.5,24c-12.2,5.6-27.1,6.5-41.1,4.2c-10.1-1.6-21.5-6.1-25.6-16.9
			c-1.4-3.7-2-7.7-2.1-11.9L94.8,37c8.9,1.1,7,0.6,14.5,0c0,36.5-0.2,29.9,0.3,44.9c0.2,7.5,4.4,15.8,12.3,18.5
			c9.8,3.4,22.1,3.9,32.2,0.6c6.3-2,12.3-8,14.2-14.4c0.9-3.2,1.1-6.7,1.4-10.2V37.1C175.8,37.9,176.3,37.6,179.9,36.9"/>
		<path class="st0" d="M58.4,76.5c-12.8-4.5-27-2.6-41.3-2.6L17,102.2c20.2,0.1,21.8,0.1,32.2-0.6c6.1-0.5,12.3-3.1,15.4-8.7
			c2.2-3.9,1.5-9.7-1.2-13.1C62,78.2,60.3,77.1,58.4,76.5 M50.2,44.7c-26-0.2-22.5-0.3-33.2,0c0,17.9-0.1,1.4-0.1,22.1
			c10.8,0.1,22.6,0.5,33.3-1.5c5-0.9,11.1-3.5,12.6-9.2c0.7-3.1,0.1-6.2-2.2-8.3C57.7,45.5,53.9,44.8,50.2,44.7 M71.2,41.9
			c4.5,2.9,6.2,8.1,5.2,13.2C75,63,66.4,67.5,59.8,69.7C67,71,75,72.5,79.1,79.5c3.5,6,2.7,14.8-2,20c-9.2,10.1-23.1,9.2-36.2,9.8
			L0,109.3c0-37.3,0-41,0-72.3c23.2,0,27.4,0.1,41.4,0.1C51.2,37.1,62.8,36.8,71.2,41.9"/>
		<path class="st0" d="M139.6,0c-6.3,0-12.1,2.1-16.8,5.6h33.5C151.7,2.1,145.9,0,139.6,0"/>
		<path class="st0" d="M167.2,27.7c0-1.1-0.1-2.3-0.2-3.4h-54.9c-0.1,1.1-0.2,2.2-0.2,3.4c0,1,0,1.9,0.1,2.9h55.1
			C167.2,29.6,167.2,28.6,167.2,27.7"/>
		<path class="st0" d="M139.6,55.4c6.6,0,12.7-2.3,17.4-6.2h-34.8C126.9,53.1,133,55.4,139.6,55.4"/>
		<path class="st0" d="M162.3,11.9h-45.4c-1.3,1.9-2.4,4-3.3,6.2h52C164.7,15.9,163.6,13.8,162.3,11.9"/>
		<path class="st0" d="M113.4,36.8c0.8,2.2,1.8,4.3,3.1,6.2h46.2c1.3-1.9,2.3-4,3.1-6.2H113.4z"/>
	</g>
</g>
</svg>
